<svg width="136" height="32" viewBox="0 0 136 32" fill="none" xmlns="http://www.w3.org/2000/svg">
<g clip-path="url(#clip0)">
<path d="M0.0703125 18.8256C0.0703125 9.15 7.55698 1.25 16.757 1.25C23.7214 1.25 29.1436 6.20556 29.1436 13.87C29.1436 23.4544 21.7125 31.4922 12.457 31.4922C5.49253 31.4922 0.0703125 26.5389 0.0703125 18.8256ZM23.2081 15.1811C23.2081 7.98111 19.9348 3.11222 15.2614 3.11222C8.90365 3.11222 6.05253 10.6456 6.05253 17.61C6.05253 24.81 9.32587 29.6233 13.9525 29.6233C20.3103 29.6233 23.2081 22.0522 23.2081 15.1811Z" fill="white"/>
<path d="M30.2224 29.7156C32.1379 29.4356 33.2135 28.8267 33.4468 27.0489L36.0646 5.96889C36.2512 4.19111 35.3157 3.58444 33.3979 3.30222L33.5779 2H45.1335C53.0779 2 58.9223 5.13111 58.9223 14.06C58.9223 23.8378 52.4779 30.9333 42.3757 30.9333C40.5979 30.9333 37.4668 30.6533 35.2646 30.6533C33.5142 30.6713 31.7665 30.796 30.0312 31.0267L30.2224 29.7156ZM53.209 13.7778C53.209 7.37556 50.6868 3.63556 45.1246 3.63556H44.3757C42.4601 3.63556 41.4868 4.19556 41.2446 5.97333L38.6668 27.0511C38.4335 28.9689 40.2557 29.2956 41.8912 29.2956C49.5179 29.2956 53.209 21.6756 53.209 13.7778Z" fill="white"/>
<path d="M61.1979 29.7156C63.1157 29.4356 64.2379 28.8267 64.4712 27.0489L67.0423 5.96889C67.2757 4.19111 66.2935 3.58444 64.3757 3.30222L64.5646 2H75.689L75.5023 3.30889C73.5379 3.58889 72.4646 4.19778 72.2779 5.97555L69.6601 27.0556C69.4712 28.6911 70.1735 29.6267 72.4179 29.4867L77.9735 29.2067C80.8246 29.0667 82.3201 27.9911 83.489 26.2156L84.5646 24.66H85.7779L84.6112 27.5489C84.0957 28.7644 83.769 29.6044 83.7223 31.0067H61.0112L61.1979 29.7156Z" fill="white"/>
<path d="M88.0234 22.7057C88.0234 15.5568 93.1101 9.52344 99.999 9.52344C103.879 9.52344 104.906 11.4412 108.832 9.94566L106.777 26.679C106.555 28.5946 107.899 29.3457 109.443 28.5479L109.257 29.7634C108.184 30.7461 106.785 31.2956 105.33 31.3057C103.552 31.3057 102.663 30.2768 102.292 29.1101C102.057 28.4079 101.777 28.3146 101.077 29.0145C100.341 29.7495 99.4656 30.3306 98.5027 30.724C97.5397 31.1173 96.508 31.3151 95.4679 31.3057C91.4368 31.3057 88.0234 28.5479 88.0234 22.7057ZM103.075 20.8368L103.497 16.9568C103.963 12.9368 102.515 11.0657 99.8968 11.0657C95.4523 11.0657 93.0257 16.4879 93.0257 21.5834C93.0257 26.0701 94.8945 28.6945 97.6923 28.6945C99.999 28.6879 102.375 27.0057 103.075 20.8368Z" fill="white"/>
<path d="M115.692 24.4809L118.028 6.25863C118.401 3.22085 117.561 2.51863 115.316 2.51863L115.503 1.25641C118.119 1.27814 120.728 0.962202 123.263 0.316406L122.141 9.33418C121.628 14.1964 125.365 9.42752 129.292 9.42752C132.425 9.42752 135.93 12.5142 135.93 18.0297C135.93 24.7142 130.976 31.3031 123.216 31.3031C119.056 31.3053 115.083 29.2964 115.692 24.4809ZM131.025 19.1053C131.025 14.992 129.203 11.9075 126.49 11.9075C124.341 11.9075 121.583 13.7297 120.834 19.2409L120.368 23.1209C119.805 27.5142 121.256 29.852 123.923 29.852C128.359 29.8564 131.023 24.0609 131.023 19.112L131.025 19.1053Z" fill="white"/>
</g>
<defs>
<clipPath id="clip0">
<rect width="136" height="31.5556" fill="white"/>
</clipPath>
</defs>
</svg>
