<svg width="32" height="32" viewBox="0 0 32 32" fill="none" xmlns="http://www.w3.org/2000/svg">
<path d="M28.3391 7V25H3.66406V7H28.3391ZM28.3391 6H3.66406C3.39885 6 3.14449 6.10536 2.95696 6.29289C2.76942 6.48043 2.66406 6.73478 2.66406 7V25C2.66406 25.2652 2.76942 25.5196 2.95696 25.7071C3.14449 25.8946 3.39885 26 3.66406 26H28.3391C28.4704 26 28.6004 25.9741 28.7217 25.9239C28.8431 25.8736 28.9533 25.8 29.0462 25.7071C29.139 25.6142 29.2127 25.504 29.2629 25.3827C29.3132 25.2614 29.3391 25.1313 29.3391 25V7C29.3391 6.86868 29.3132 6.73864 29.2629 6.61732C29.2127 6.49599 29.139 6.38575 29.0462 6.29289C28.9533 6.20004 28.8431 6.12637 28.7217 6.07612C28.6004 6.02587 28.4704 6 28.3391 6Z" fill="white" stroke="white" stroke-width="0.8"/>
<path d="M15.9992 16.6258L3.19922 7.23828L3.79922 6.42578L15.9992 15.3758L28.1992 6.42578L28.7992 7.23828L15.9992 16.6258Z" fill="white" stroke="white" stroke-width="0.8"/>
</svg>
