<svg width="152" height="36" viewBox="0 0 152 36" fill="none" xmlns="http://www.w3.org/2000/svg">
<g clip-path="url(#clip0)">
<path d="M0.0769043 21.039C0.0769043 10.2252 8.44436 1.39575 18.7267 1.39575C26.5105 1.39575 32.5706 6.93432 32.5706 15.5005C32.5706 26.2125 24.2653 35.1959 13.9208 35.1959C6.13703 35.1959 0.0769043 29.6598 0.0769043 21.039ZM25.9368 16.9658C25.9368 8.91876 22.2783 3.47706 17.0552 3.47706C9.94945 3.47706 6.76292 11.8967 6.76292 19.6805C6.76292 27.7275 10.4213 33.1071 15.5923 33.1071C22.6981 33.1071 25.9368 24.6453 25.9368 16.9658Z" fill="#333333"/>
<path d="M33.7778 33.2116C35.9187 32.8986 37.1208 32.2181 37.3816 30.2312L40.3073 6.67117C40.516 4.68424 39.4704 4.0062 37.327 3.69078L37.5281 2.23535H50.4432C59.3223 2.23535 65.8543 5.73483 65.8543 15.7142C65.8543 26.6423 58.6517 34.5726 47.3609 34.5726C45.374 34.5726 41.8745 34.2597 39.4132 34.2597C37.4569 34.2798 35.5036 34.4191 33.5642 34.6769L33.7778 33.2116ZM59.4688 15.3988C59.4688 8.24333 56.6498 4.06333 50.4332 4.06333H49.5962C47.4553 4.06333 46.3675 4.68921 46.0968 6.67614L43.2157 30.2337C42.9549 32.3771 44.9915 32.7422 46.8195 32.7422C55.3434 32.7422 59.4688 24.2257 59.4688 15.3988Z" fill="#333333"/>
<path d="M68.3976 33.2116C70.541 32.8986 71.7952 32.2181 72.056 30.2312L74.9296 6.67117C75.1904 4.68424 74.0926 4.0062 71.9492 3.69078L72.1603 2.23535H84.5935L84.3849 3.69823C82.1894 4.01117 80.9898 4.69169 80.7811 6.67862L77.8554 30.2386C77.6443 32.0666 78.4291 33.1122 80.9376 32.9558L87.1467 32.6428C90.3333 32.4863 92.0048 31.2842 93.3112 29.2998L94.5133 27.5612H95.8694L94.5654 30.79C93.9892 32.1486 93.6241 33.0874 93.572 34.6546H68.189L68.3976 33.2116Z" fill="#333333"/>
<path d="M98.3801 25.3754C98.3801 17.3855 104.065 10.6423 111.765 10.6423C116.101 10.6423 117.248 12.7857 121.637 11.1142L119.34 29.8162C119.091 31.9571 120.594 32.7966 122.32 31.905L122.112 33.2635C120.913 34.3617 119.349 34.976 117.723 34.9872C115.736 34.9872 114.742 33.8372 114.328 32.5333C114.064 31.7485 113.752 31.6442 112.969 32.4265C112.146 33.248 111.168 33.8974 110.092 34.3371C109.016 34.7767 107.863 34.9977 106.7 34.9872C102.195 34.9872 98.3801 31.905 98.3801 25.3754ZM115.202 23.2867L115.674 18.9502C116.195 14.4572 114.576 12.366 111.65 12.366C106.683 12.366 103.971 18.4261 103.971 24.1212C103.971 29.1357 106.06 32.0689 109.187 32.0689C111.765 32.0614 114.42 30.1813 115.202 23.2867Z" fill="#333333"/>
<path d="M129.304 27.3599L131.915 6.99385C132.332 3.59868 131.393 2.81385 128.885 2.81385L129.093 1.40313C132.017 1.42742 134.932 1.07431 137.766 0.352539L136.512 10.4312C135.938 15.8655 140.116 10.5355 144.504 10.5355C148.006 10.5355 151.923 13.9854 151.923 20.1498C151.923 27.6207 146.387 34.9847 137.714 34.9847C133.065 34.9872 128.624 32.742 129.304 27.3599ZM146.442 21.3519C146.442 16.7546 144.405 13.3073 141.372 13.3073C138.971 13.3073 135.888 15.3439 135.051 21.5034L134.53 25.8399C133.902 30.7501 135.523 33.3629 138.504 33.3629C143.461 33.3678 146.439 26.8905 146.439 21.3593L146.442 21.3519Z" fill="#333333"/>
</g>
<defs>
<clipPath id="clip0">
<rect width="152" height="35.268" fill="white"/>
</clipPath>
</defs>
</svg>
